<?xml version="1.0" encoding="UTF-8" standalone="no"?>
<!DOCTYPE svg PUBLIC "-//W3C//DTD SVG 1.1//EN"
 "http://www.w3.org/Graphics/SVG/1.1/DTD/svg11.dtd">
<!-- Generated by graphviz version 2.38.0 (20140413.2041)
 -->
<!-- Title: VectorNetworkProject\Framework\command\EliasCommand\PermissionManager Pages: 1 -->
<svg width="408pt" height="50pt"
 viewBox="0.00 0.00 408.00 50.00" xmlns="http://www.w3.org/2000/svg" xmlns:xlink="http://www.w3.org/1999/xlink">
<g id="graph0" class="graph" transform="scale(1 1) rotate(0) translate(4 46)">
<title>VectorNetworkProject\Framework\command\EliasCommand\PermissionManager</title>
<polygon fill="white" stroke="none" points="-4,4 -4,-46 404,-46 404,4 -4,4"/>
<!-- Node12 -->
<g id="node1" class="node"><title>Node12</title>
<polygon fill="#bfbfbf" stroke="black" points="0,-0.5 0,-41.5 182,-41.5 182,-0.5 0,-0.5"/>
<text text-anchor="start" x="8" y="-29.5" font-family="Helvetica,sans-Serif" font-size="10.00">VectorNetworkProject</text>
<text text-anchor="start" x="8" y="-18.5" font-family="Helvetica,sans-Serif" font-size="10.00">\Framework\command\EliasCommand</text>
<text text-anchor="middle" x="91" y="-7.5" font-family="Helvetica,sans-Serif" font-size="10.00">\PermissionManager</text>
</g>
<!-- Node13 -->
<g id="node2" class="node"><title>Node13</title>
<g id="a_node2"><a xlink:href="../../d7/dc6/class_vector_network_project_1_1_framework_1_1command_1_1_elias_command.xhtml#a21cffd360c3892dcf4355db4815027fa" target="_top" xlink:title="VectorNetworkProject\l\\Framework\\command\\EliasCommand\l\\__construct">
<polygon fill="white" stroke="black" points="218,-0.5 218,-41.5 400,-41.5 400,-0.5 218,-0.5"/>
<text text-anchor="start" x="226" y="-29.5" font-family="Helvetica,sans-Serif" font-size="10.00">VectorNetworkProject</text>
<text text-anchor="start" x="226" y="-18.5" font-family="Helvetica,sans-Serif" font-size="10.00">\Framework\command\EliasCommand</text>
<text text-anchor="middle" x="309" y="-7.5" font-family="Helvetica,sans-Serif" font-size="10.00">\__construct</text>
</a>
</g>
</g>
<!-- Node12&#45;&gt;Node13 -->
<g id="edge1" class="edge"><title>Node12&#45;&gt;Node13</title>
<path fill="none" stroke="midnightblue" d="M192.059,-21C200.631,-21 209.27,-21 217.759,-21"/>
<polygon fill="midnightblue" stroke="midnightblue" points="192.039,-17.5001 182.039,-21 192.039,-24.5001 192.039,-17.5001"/>
</g>
</g>
</svg>
