<?xml version="1.0" encoding="UTF-8" standalone="no"?>
<!DOCTYPE svg PUBLIC "-//W3C//DTD SVG 1.1//EN"
 "http://www.w3.org/Graphics/SVG/1.1/DTD/svg11.dtd">
<!-- Generated by graphviz version 2.38.0 (20140413.2041)
 -->
<!-- Title: VectorNetworkProject\Framework\command\FrameworkCommand\onCommand Pages: 1 -->
<svg width="372pt" height="50pt"
 viewBox="0.00 0.00 372.00 50.00" xmlns="http://www.w3.org/2000/svg" xmlns:xlink="http://www.w3.org/1999/xlink">
<g id="graph0" class="graph" transform="scale(1 1) rotate(0) translate(4 46)">
<title>VectorNetworkProject\Framework\command\FrameworkCommand\onCommand</title>
<polygon fill="white" stroke="none" points="-4,4 -4,-46 368,-46 368,4 -4,4"/>
<!-- Node9 -->
<g id="node1" class="node"><title>Node9</title>
<polygon fill="#bfbfbf" stroke="black" points="0,-0.5 0,-41.5 164,-41.5 164,-0.5 0,-0.5"/>
<text text-anchor="start" x="8" y="-29.5" font-family="Helvetica,sans-Serif" font-size="10.00">VectorNetworkProject</text>
<text text-anchor="start" x="8" y="-18.5" font-family="Helvetica,sans-Serif" font-size="10.00">\Framework\command\Framework</text>
<text text-anchor="middle" x="82" y="-7.5" font-family="Helvetica,sans-Serif" font-size="10.00">Command\onCommand</text>
</g>
<!-- Node10 -->
<g id="node2" class="node"><title>Node10</title>
<g id="a_node2"><a xlink:href="../../dc/ddd/class_vector_network_project_1_1_framework_1_1command_1_1_framework_command.xhtml#a1610bbd5d6bbecbedc64bb0797a8a452" target="_top" xlink:title="VectorNetworkProject\l\\Framework\\command\\Framework\lCommand\\execute">
<polygon fill="white" stroke="black" points="200,-0.5 200,-41.5 364,-41.5 364,-0.5 200,-0.5"/>
<text text-anchor="start" x="208" y="-29.5" font-family="Helvetica,sans-Serif" font-size="10.00">VectorNetworkProject</text>
<text text-anchor="start" x="208" y="-18.5" font-family="Helvetica,sans-Serif" font-size="10.00">\Framework\command\Framework</text>
<text text-anchor="middle" x="282" y="-7.5" font-family="Helvetica,sans-Serif" font-size="10.00">Command\execute</text>
</a>
</g>
</g>
<!-- Node9&#45;&gt;Node10 -->
<g id="edge1" class="edge"><title>Node9&#45;&gt;Node10</title>
<path fill="none" stroke="midnightblue" d="M174.363,-21C182.817,-21 191.346,-21 199.7,-21"/>
<polygon fill="midnightblue" stroke="midnightblue" points="174.106,-17.5001 164.105,-21 174.105,-24.5001 174.106,-17.5001"/>
</g>
</g>
</svg>
