<?xml version="1.0" encoding="UTF-8" standalone="no"?>
<!DOCTYPE svg PUBLIC "-//W3C//DTD SVG 1.1//EN"
 "http://www.w3.org/Graphics/SVG/1.1/DTD/svg11.dtd">
<!-- Generated by graphviz version 2.38.0 (20140413.2041)
 -->
<!-- Title: VectorNetworkProject\Framework\command\FrameworkCommand\PermissionManager Pages: 1 -->
<svg width="372pt" height="50pt"
 viewBox="0.00 0.00 372.00 50.00" xmlns="http://www.w3.org/2000/svg" xmlns:xlink="http://www.w3.org/1999/xlink">
<g id="graph0" class="graph" transform="scale(1 1) rotate(0) translate(4 46)">
<title>VectorNetworkProject\Framework\command\FrameworkCommand\PermissionManager</title>
<polygon fill="white" stroke="none" points="-4,4 -4,-46 368,-46 368,4 -4,4"/>
<!-- Node12 -->
<g id="node1" class="node"><title>Node12</title>
<polygon fill="#bfbfbf" stroke="black" points="0,-0.5 0,-41.5 164,-41.5 164,-0.5 0,-0.5"/>
<text text-anchor="start" x="8" y="-29.5" font-family="Helvetica,sans-Serif" font-size="10.00">VectorNetworkProject</text>
<text text-anchor="start" x="8" y="-18.5" font-family="Helvetica,sans-Serif" font-size="10.00">\Framework\command\Framework</text>
<text text-anchor="middle" x="82" y="-7.5" font-family="Helvetica,sans-Serif" font-size="10.00">Command\PermissionManager</text>
</g>
<!-- Node13 -->
<g id="node2" class="node"><title>Node13</title>
<g id="a_node2"><a xlink:href="../../dc/ddd/class_vector_network_project_1_1_framework_1_1command_1_1_framework_command.xhtml#a2735e6b171f615a4ee21b93bafeab3a3" target="_top" xlink:title="VectorNetworkProject\l\\Framework\\command\\Framework\lCommand\\__construct">
<polygon fill="white" stroke="black" points="200,-0.5 200,-41.5 364,-41.5 364,-0.5 200,-0.5"/>
<text text-anchor="start" x="208" y="-29.5" font-family="Helvetica,sans-Serif" font-size="10.00">VectorNetworkProject</text>
<text text-anchor="start" x="208" y="-18.5" font-family="Helvetica,sans-Serif" font-size="10.00">\Framework\command\Framework</text>
<text text-anchor="middle" x="282" y="-7.5" font-family="Helvetica,sans-Serif" font-size="10.00">Command\__construct</text>
</a>
</g>
</g>
<!-- Node12&#45;&gt;Node13 -->
<g id="edge1" class="edge"><title>Node12&#45;&gt;Node13</title>
<path fill="none" stroke="midnightblue" d="M174.363,-21C182.817,-21 191.346,-21 199.7,-21"/>
<polygon fill="midnightblue" stroke="midnightblue" points="174.106,-17.5001 164.105,-21 174.105,-24.5001 174.106,-17.5001"/>
</g>
</g>
</svg>
