<?xml version="1.0" encoding="UTF-8" standalone="no"?>
<!DOCTYPE svg PUBLIC "-//W3C//DTD SVG 1.1//EN"
 "http://www.w3.org/Graphics/SVG/1.1/DTD/svg11.dtd">
<!-- Generated by graphviz version 2.38.0 (20140413.2041)
 -->
<!-- Title: VectorNetworkProject\Framework\provider\base\ProviderBase\getFilePath Pages: 1 -->
<svg width="493pt" height="119pt"
 viewBox="0.00 0.00 493.00 119.00" xmlns="http://www.w3.org/2000/svg" xmlns:xlink="http://www.w3.org/1999/xlink">
<g id="graph0" class="graph" transform="scale(1 1) rotate(0) translate(4 115)">
<title>VectorNetworkProject\Framework\provider\base\ProviderBase\getFilePath</title>
<polygon fill="white" stroke="none" points="-4,4 -4,-115 489,-115 489,4 -4,4"/>
<!-- Node8 -->
<g id="node1" class="node"><title>Node8</title>
<polygon fill="#bfbfbf" stroke="black" points="0,-30.5 0,-71.5 129,-71.5 129,-30.5 0,-30.5"/>
<text text-anchor="start" x="8" y="-59.5" font-family="Helvetica,sans-Serif" font-size="10.00">VectorNetworkProject</text>
<text text-anchor="start" x="8" y="-48.5" font-family="Helvetica,sans-Serif" font-size="10.00">\Framework\provider\base</text>
<text text-anchor="middle" x="64.5" y="-37.5" font-family="Helvetica,sans-Serif" font-size="10.00">\ProviderBase\getFilePath</text>
</g>
<!-- Node9 -->
<g id="node2" class="node"><title>Node9</title>
<g id="a_node2"><a xlink:href="../../d0/dfa/class_vector_network_project_1_1_framework_1_1provider_1_1_elias_d_b.xhtml#a1bdf14bb9a7fd6976b38a0d96359dce7" target="_top" xlink:title="VectorNetworkProject\l\\Framework\\provider\\EliasDB\l\\hasTable">
<polygon fill="white" stroke="black" points="165,-30.5 165,-71.5 307,-71.5 307,-30.5 165,-30.5"/>
<text text-anchor="start" x="173" y="-59.5" font-family="Helvetica,sans-Serif" font-size="10.00">VectorNetworkProject</text>
<text text-anchor="start" x="173" y="-48.5" font-family="Helvetica,sans-Serif" font-size="10.00">\Framework\provider\EliasDB</text>
<text text-anchor="middle" x="236" y="-37.5" font-family="Helvetica,sans-Serif" font-size="10.00">\hasTable</text>
</a>
</g>
</g>
<!-- Node8&#45;&gt;Node9 -->
<g id="edge1" class="edge"><title>Node8&#45;&gt;Node9</title>
<path fill="none" stroke="midnightblue" d="M139.319,-51C147.777,-51 156.383,-51 164.792,-51"/>
<polygon fill="midnightblue" stroke="midnightblue" points="139.098,-47.5001 129.098,-51 139.098,-54.5001 139.098,-47.5001"/>
</g>
<!-- Node10 -->
<g id="node3" class="node"><title>Node10</title>
<g id="a_node3"><a xlink:href="../../d0/dfa/class_vector_network_project_1_1_framework_1_1provider_1_1_elias_d_b.xhtml#aa7596b6d7949b01159d8caae6b65ccfa" target="_top" xlink:title="VectorNetworkProject\l\\Framework\\provider\\EliasDB\l\\createTable">
<polygon fill="white" stroke="black" points="343,-69.5 343,-110.5 485,-110.5 485,-69.5 343,-69.5"/>
<text text-anchor="start" x="351" y="-98.5" font-family="Helvetica,sans-Serif" font-size="10.00">VectorNetworkProject</text>
<text text-anchor="start" x="351" y="-87.5" font-family="Helvetica,sans-Serif" font-size="10.00">\Framework\provider\EliasDB</text>
<text text-anchor="middle" x="414" y="-76.5" font-family="Helvetica,sans-Serif" font-size="10.00">\createTable</text>
</a>
</g>
</g>
<!-- Node8&#45;&gt;Node10 -->
<g id="edge4" class="edge"><title>Node8&#45;&gt;Node10</title>
<path fill="none" stroke="midnightblue" d="M134.301,-74.2249C144.496,-76.9396 154.951,-79.3313 165,-81 224.396,-90.8633 292.849,-92.6399 342.77,-92.2196"/>
<polygon fill="midnightblue" stroke="midnightblue" points="135.201,-70.8424 124.629,-71.5362 133.326,-77.5866 135.201,-70.8424"/>
</g>
<!-- Node11 -->
<g id="node4" class="node"><title>Node11</title>
<g id="a_node4"><a xlink:href="../../d0/dfa/class_vector_network_project_1_1_framework_1_1provider_1_1_elias_d_b.xhtml#aedf1a8787bf1d893c9a41683564a8e41" target="_top" xlink:title="VectorNetworkProject\l\\Framework\\provider\\EliasDB\l\\deleteTable">
<polygon fill="white" stroke="black" points="343,-0.5 343,-41.5 485,-41.5 485,-0.5 343,-0.5"/>
<text text-anchor="start" x="351" y="-29.5" font-family="Helvetica,sans-Serif" font-size="10.00">VectorNetworkProject</text>
<text text-anchor="start" x="351" y="-18.5" font-family="Helvetica,sans-Serif" font-size="10.00">\Framework\provider\EliasDB</text>
<text text-anchor="middle" x="414" y="-7.5" font-family="Helvetica,sans-Serif" font-size="10.00">\deleteTable</text>
</a>
</g>
</g>
<!-- Node8&#45;&gt;Node11 -->
<g id="edge5" class="edge"><title>Node8&#45;&gt;Node11</title>
<path fill="none" stroke="midnightblue" d="M132.897,-27.7983C143.524,-24.9799 154.477,-22.5518 165,-21 224.526,-12.2214 292.967,-13.0272 342.851,-15.5693"/>
<polygon fill="midnightblue" stroke="midnightblue" points="131.947,-24.4297 123.251,-30.4824 133.824,-31.1735 131.947,-24.4297"/>
</g>
<!-- Node9&#45;&gt;Node10 -->
<g id="edge2" class="edge"><title>Node9&#45;&gt;Node10</title>
<path fill="none" stroke="midnightblue" d="M317.101,-68.7496C325.706,-70.6564 334.412,-72.5857 342.888,-74.4638"/>
<polygon fill="midnightblue" stroke="midnightblue" points="317.586,-65.2723 307.066,-66.5259 316.072,-72.1065 317.586,-65.2723"/>
</g>
<!-- Node9&#45;&gt;Node11 -->
<g id="edge3" class="edge"><title>Node9&#45;&gt;Node11</title>
<path fill="none" stroke="midnightblue" d="M317.101,-37.3465C325.706,-35.8797 334.412,-34.3956 342.888,-32.9509"/>
<polygon fill="midnightblue" stroke="midnightblue" points="316.335,-33.9264 307.066,-39.057 317.512,-40.8269 316.335,-33.9264"/>
</g>
</g>
</svg>
