<?xml version="1.0" encoding="UTF-8" standalone="no"?>
<!DOCTYPE svg PUBLIC "-//W3C//DTD SVG 1.1//EN"
 "http://www.w3.org/Graphics/SVG/1.1/DTD/svg11.dtd">
<!-- Generated by graphviz version 2.38.0 (20140413.2041)
 -->
<!-- Title: VectorNetworkProject\Framework\provider\base\ProviderBase\getDirectory Pages: 1 -->
<svg width="334pt" height="50pt"
 viewBox="0.00 0.00 334.00 50.00" xmlns="http://www.w3.org/2000/svg" xmlns:xlink="http://www.w3.org/1999/xlink">
<g id="graph0" class="graph" transform="scale(1 1) rotate(0) translate(4 46)">
<title>VectorNetworkProject\Framework\provider\base\ProviderBase\getDirectory</title>
<polygon fill="white" stroke="none" points="-4,4 -4,-46 330,-46 330,4 -4,4"/>
<!-- Node3 -->
<g id="node1" class="node"><title>Node3</title>
<polygon fill="#bfbfbf" stroke="black" points="0,-0.5 0,-41.5 132,-41.5 132,-0.5 0,-0.5"/>
<text text-anchor="start" x="8" y="-29.5" font-family="Helvetica,sans-Serif" font-size="10.00">VectorNetworkProject</text>
<text text-anchor="start" x="8" y="-18.5" font-family="Helvetica,sans-Serif" font-size="10.00">\Framework\provider\base</text>
<text text-anchor="middle" x="66" y="-7.5" font-family="Helvetica,sans-Serif" font-size="10.00">\ProviderBase\getDirectory</text>
</g>
<!-- Node4 -->
<g id="node2" class="node"><title>Node4</title>
<g id="a_node2"><a xlink:href="../../d0/dfa/class_vector_network_project_1_1_framework_1_1provider_1_1_elias_d_b.xhtml#a12ed8a98c8717dbe5ff3f07807d3ff5a" target="_top" xlink:title="VectorNetworkProject\l\\Framework\\provider\\EliasDB\\init">
<polygon fill="white" stroke="black" points="168,-6 168,-36 326,-36 326,-6 168,-6"/>
<text text-anchor="start" x="176" y="-24" font-family="Helvetica,sans-Serif" font-size="10.00">VectorNetworkProject</text>
<text text-anchor="middle" x="247" y="-13" font-family="Helvetica,sans-Serif" font-size="10.00">\Framework\provider\EliasDB\init</text>
</a>
</g>
</g>
<!-- Node3&#45;&gt;Node4 -->
<g id="edge1" class="edge"><title>Node3&#45;&gt;Node4</title>
<path fill="none" stroke="midnightblue" d="M142.312,-21C150.748,-21 159.355,-21 167.826,-21"/>
<polygon fill="midnightblue" stroke="midnightblue" points="142.13,-17.5001 132.129,-21 142.129,-24.5001 142.13,-17.5001"/>
</g>
</g>
</svg>
