<?xml version="1.0" encoding="UTF-8" standalone="no"?>
<!DOCTYPE svg PUBLIC "-//W3C//DTD SVG 1.1//EN"
 "http://www.w3.org/Graphics/SVG/1.1/DTD/svg11.dtd">
<!-- Generated by graphviz version 2.36.0 (20140111.2315)
 -->
<!-- Title: VectorNetworkProject\Framework\EliasCore\getPlugin Pages: 1 -->
<svg width="308pt" height="48pt"
 viewBox="0.00 0.00 308.00 48.00" xmlns="http://www.w3.org/2000/svg" xmlns:xlink="http://www.w3.org/1999/xlink">
<g id="graph0" class="graph" transform="scale(1 1) rotate(0) translate(4 44)">
<title>VectorNetworkProject\Framework\EliasCore\getPlugin</title>
<polygon fill="white" stroke="none" points="-4,4 -4,-44 304,-44 304,4 -4,4"/>
<!-- Node1 -->
<g id="node1" class="node"><title>Node1</title>
<polygon fill="#bfbfbf" stroke="black" points="0,0.5 0,-40.5 114,-40.5 114,0.5 0,0.5"/>
<text text-anchor="start" x="8" y="-28.5" font-family="Helvetica,sans-Serif" font-size="10.00">VectorNetworkProject</text>
<text text-anchor="start" x="8" y="-17.5" font-family="Helvetica,sans-Serif" font-size="10.00">\Framework\EliasCore</text>
<text text-anchor="middle" x="57" y="-6.5" font-family="Helvetica,sans-Serif" font-size="10.00">\getPlugin</text>
</g>
<!-- Node2 -->
<g id="node2" class="node"><title>Node2</title>
<g id="a_node2"><a xlink:href="../../de/ded/class_vector_network_project_1_1_framework_1_1player_1_1_elias_player.xhtml#ae09012d65d7a67fd7926bc3486397944" target="_top" xlink:title="VectorNetworkProject\l\\Framework\\player\\EliasPlayer\l\\getDataDirectory">
<polygon fill="white" stroke="black" points="150,0.5 150,-40.5 300,-40.5 300,0.5 150,0.5"/>
<text text-anchor="start" x="158" y="-28.5" font-family="Helvetica,sans-Serif" font-size="10.00">VectorNetworkProject</text>
<text text-anchor="start" x="158" y="-17.5" font-family="Helvetica,sans-Serif" font-size="10.00">\Framework\player\EliasPlayer</text>
<text text-anchor="middle" x="225" y="-6.5" font-family="Helvetica,sans-Serif" font-size="10.00">\getDataDirectory</text>
</a>
</g>
</g>
<!-- Node1&#45;&gt;Node2 -->
<g id="edge1" class="edge"><title>Node1&#45;&gt;Node2</title>
<path fill="none" stroke="midnightblue" d="M124.318,-20C132.731,-20 141.382,-20 149.906,-20"/>
<polygon fill="midnightblue" stroke="midnightblue" points="124.2,-16.5001 114.2,-20 124.2,-23.5001 124.2,-16.5001"/>
</g>
</g>
</svg>
