<?xml version="1.0" encoding="UTF-8" standalone="no"?>
<!DOCTYPE svg PUBLIC "-//W3C//DTD SVG 1.1//EN"
 "http://www.w3.org/Graphics/SVG/1.1/DTD/svg11.dtd">
<!-- Generated by graphviz version 2.36.0 (20140111.2315)
 -->
<!-- Title: VectorNetworkProject\Framework\EliasCore\init Pages: 1 -->
<svg width="306pt" height="109pt"
 viewBox="0.00 0.00 306.00 109.00" xmlns="http://www.w3.org/2000/svg" xmlns:xlink="http://www.w3.org/1999/xlink">
<g id="graph0" class="graph" transform="scale(1 1) rotate(0) translate(4 105)">
<title>VectorNetworkProject\Framework\EliasCore\init</title>
<polygon fill="white" stroke="none" points="-4,4 -4,-105 302,-105 302,4 -4,4"/>
<!-- Node1 -->
<g id="node1" class="node"><title>Node1</title>
<polygon fill="#bfbfbf" stroke="black" points="0,-35 0,-65 130,-65 130,-35 0,-35"/>
<text text-anchor="start" x="8" y="-53" font-family="Helvetica,sans-Serif" font-size="10.00">VectorNetworkProject</text>
<text text-anchor="middle" x="65" y="-42" font-family="Helvetica,sans-Serif" font-size="10.00">\Framework\EliasCore\init</text>
</g>
<!-- Node2 -->
<g id="node2" class="node"><title>Node2</title>
<g id="a_node2"><a xlink:href="../../d1/d9d/class_vector_network_project_1_1_framework_1_1util_1_1_constants.xhtml#a8e2af32633104df87ecd6c9449e8c3d0" target="_top" xlink:title="VectorNetworkProject\l\\Framework\\util\\Constants\l\\setOption">
<polygon fill="white" stroke="black" points="166,-59.5 166,-100.5 298,-100.5 298,-59.5 166,-59.5"/>
<text text-anchor="start" x="174" y="-88.5" font-family="Helvetica,sans-Serif" font-size="10.00">VectorNetworkProject</text>
<text text-anchor="start" x="174" y="-77.5" font-family="Helvetica,sans-Serif" font-size="10.00">\Framework\util\Constants</text>
<text text-anchor="middle" x="232" y="-66.5" font-family="Helvetica,sans-Serif" font-size="10.00">\setOption</text>
</a>
</g>
</g>
<!-- Node1&#45;&gt;Node2 -->
<g id="edge1" class="edge"><title>Node1&#45;&gt;Node2</title>
<path fill="none" stroke="midnightblue" d="M130.266,-61.6847C138.656,-63.2101 147.31,-64.7837 155.859,-66.3379"/>
<polygon fill="midnightblue" stroke="midnightblue" points="155.358,-69.8042 165.823,-68.1496 156.61,-62.9171 155.358,-69.8042"/>
</g>
<!-- Node3 -->
<g id="node3" class="node"><title>Node3</title>
<g id="a_node3"><a xlink:href="../../d1/d9d/class_vector_network_project_1_1_framework_1_1util_1_1_constants.xhtml#aaf1051f97e6cb053a63e9403bd78c736" target="_top" xlink:title="VectorNetworkProject\l\\Framework\\util\\Constants\l\\getOption">
<polygon fill="white" stroke="black" points="166,0.5 166,-40.5 298,-40.5 298,0.5 166,0.5"/>
<text text-anchor="start" x="174" y="-28.5" font-family="Helvetica,sans-Serif" font-size="10.00">VectorNetworkProject</text>
<text text-anchor="start" x="174" y="-17.5" font-family="Helvetica,sans-Serif" font-size="10.00">\Framework\util\Constants</text>
<text text-anchor="middle" x="232" y="-6.5" font-family="Helvetica,sans-Serif" font-size="10.00">\getOption</text>
</a>
</g>
</g>
<!-- Node1&#45;&gt;Node3 -->
<g id="edge2" class="edge"><title>Node1&#45;&gt;Node3</title>
<path fill="none" stroke="midnightblue" d="M130.266,-38.3153C138.656,-36.7899 147.31,-35.2163 155.859,-33.6621"/>
<polygon fill="midnightblue" stroke="midnightblue" points="156.61,-37.0829 165.823,-31.8504 155.358,-30.1958 156.61,-37.0829"/>
</g>
</g>
</svg>
