<?xml version="1.0" encoding="UTF-8" standalone="no"?>
<!DOCTYPE svg PUBLIC "-//W3C//DTD SVG 1.1//EN"
 "http://www.w3.org/Graphics/SVG/1.1/DTD/svg11.dtd">
<!-- Generated by graphviz version 2.36.0 (20140111.2315)
 -->
<!-- Title: クラス階層図 Pages: 1 -->
<svg width="484pt" height="92pt"
 viewBox="0.00 0.00 484.00 92.00" xmlns="http://www.w3.org/2000/svg" xmlns:xlink="http://www.w3.org/1999/xlink">
<g id="graph0" class="graph" transform="scale(1 1) rotate(0) translate(4 88)">
<title>クラス階層図</title>
<polygon fill="white" stroke="none" points="-4,4 -4,-88 480,-88 480,4 -4,4"/>
<!-- Node1 -->
<g id="node1" class="node"><title>Node1</title>
<polygon fill="white" stroke="#bfbfbf" points="0,-34.5 0,-53.5 62,-53.5 62,-34.5 0,-34.5"/>
<text text-anchor="middle" x="31" y="-41.5" font-family="Helvetica,sans-Serif" font-size="10.00">Command</text>
</g>
<!-- Node2 -->
<g id="node2" class="node"><title>Node2</title>
<g id="a_node2"><a xlink:href="d7/dc6/class_vector_network_project_1_1_framework_1_1command_1_1_elias_command.xhtml" target="_top" xlink:title="VectorNetworkProject\l\\Framework\\command\\EliasCommand">
<polygon fill="white" stroke="black" points="101,-54 101,-84 285,-84 285,-54 101,-54"/>
<text text-anchor="start" x="109" y="-72" font-family="Helvetica,sans-Serif" font-size="10.00">VectorNetworkProject</text>
<text text-anchor="middle" x="193" y="-61" font-family="Helvetica,sans-Serif" font-size="10.00">\Framework\command\EliasCommand</text>
</a>
</g>
</g>
<!-- Node1&#45;&gt;Node2 -->
<g id="edge1" class="edge"><title>Node1&#45;&gt;Node2</title>
<path fill="none" stroke="midnightblue" d="M72.1294,-50.2702C81.0591,-51.6655 90.8793,-53.1999 100.937,-54.7714"/>
<polygon fill="midnightblue" stroke="midnightblue" points="72.5152,-46.7881 62.0948,-48.7023 71.4345,-53.7042 72.5152,-46.7881"/>
</g>
<!-- Node3 -->
<g id="node3" class="node"><title>Node3</title>
<g id="a_node3"><a xlink:href="d6/d2d/class_vector_network_project_1_1_framework_1_1command_1_1_player_command.xhtml" target="_top" xlink:title="VectorNetworkProject\l\\Framework\\command\\PlayerCommand">
<polygon fill="white" stroke="black" points="98,-5 98,-35 288,-35 288,-5 98,-5"/>
<text text-anchor="start" x="106" y="-23" font-family="Helvetica,sans-Serif" font-size="10.00">VectorNetworkProject</text>
<text text-anchor="middle" x="193" y="-12" font-family="Helvetica,sans-Serif" font-size="10.00">\Framework\command\PlayerCommand</text>
</a>
</g>
</g>
<!-- Node1&#45;&gt;Node3 -->
<g id="edge2" class="edge"><title>Node1&#45;&gt;Node3</title>
<path fill="none" stroke="midnightblue" d="M72.1853,-37.9722C80.2052,-36.7692 88.9416,-35.4588 97.9224,-34.1116"/>
<polygon fill="midnightblue" stroke="midnightblue" points="71.4649,-34.541 62.0948,-39.4858 72.5034,-41.4636 71.4649,-34.541"/>
</g>
<!-- Node4 -->
<g id="node4" class="node"><title>Node4</title>
<g id="a_node4"><a xlink:href="df/ddd/class_vector_network_project_1_1_framework_1_1command_1_1defaults_1_1_ping_command.xhtml" target="_top" xlink:title="VectorNetworkProject\l\\Framework\\command\\defaults\l\\PingCommand">
<polygon fill="white" stroke="black" points="324,0.5 324,-40.5 476,-40.5 476,0.5 324,0.5"/>
<text text-anchor="start" x="332" y="-28.5" font-family="Helvetica,sans-Serif" font-size="10.00">VectorNetworkProject</text>
<text text-anchor="start" x="332" y="-17.5" font-family="Helvetica,sans-Serif" font-size="10.00">\Framework\command\defaults</text>
<text text-anchor="middle" x="400" y="-6.5" font-family="Helvetica,sans-Serif" font-size="10.00">\PingCommand</text>
</a>
</g>
</g>
<!-- Node3&#45;&gt;Node4 -->
<g id="edge3" class="edge"><title>Node3&#45;&gt;Node4</title>
<path fill="none" stroke="midnightblue" d="M298.246,-20C306.896,-20 315.528,-20 323.898,-20"/>
<polygon fill="midnightblue" stroke="midnightblue" points="298.1,-16.5001 288.1,-20 298.1,-23.5001 298.1,-16.5001"/>
</g>
</g>
</svg>
