<?xml version="1.0" encoding="UTF-8" standalone="no"?>
<!DOCTYPE svg PUBLIC "-//W3C//DTD SVG 1.1//EN"
 "http://www.w3.org/Graphics/SVG/1.1/DTD/svg11.dtd">
<!-- Generated by graphviz version 2.38.0 (20140413.2041)
 -->
<!-- Title: VectorNetworkProject\Framework\provider\EliasDB\deleteTable Pages: 1 -->
<svg width="493pt" height="75pt"
 viewBox="0.00 0.00 493.00 75.00" xmlns="http://www.w3.org/2000/svg" xmlns:xlink="http://www.w3.org/1999/xlink">
<g id="graph0" class="graph" transform="scale(1 1) rotate(0) translate(4 71)">
<title>VectorNetworkProject\Framework\provider\EliasDB\deleteTable</title>
<polygon fill="white" stroke="none" points="-4,4 -4,-71 489,-71 489,4 -4,4"/>
<!-- Node10 -->
<g id="node1" class="node"><title>Node10</title>
<polygon fill="#bfbfbf" stroke="black" points="0,-0.5 0,-41.5 142,-41.5 142,-0.5 0,-0.5"/>
<text text-anchor="start" x="8" y="-29.5" font-family="Helvetica,sans-Serif" font-size="10.00">VectorNetworkProject</text>
<text text-anchor="start" x="8" y="-18.5" font-family="Helvetica,sans-Serif" font-size="10.00">\Framework\provider\EliasDB</text>
<text text-anchor="middle" x="71" y="-7.5" font-family="Helvetica,sans-Serif" font-size="10.00">\deleteTable</text>
</g>
<!-- Node11 -->
<g id="node2" class="node"><title>Node11</title>
<g id="a_node2"><a xlink:href="../../d0/dfa/class_vector_network_project_1_1_framework_1_1provider_1_1_elias_d_b.xhtml#a1bdf14bb9a7fd6976b38a0d96359dce7" target="_top" xlink:title="VectorNetworkProject\l\\Framework\\provider\\EliasDB\l\\hasTable">
<polygon fill="white" stroke="black" points="178,-25.5 178,-66.5 320,-66.5 320,-25.5 178,-25.5"/>
<text text-anchor="start" x="186" y="-54.5" font-family="Helvetica,sans-Serif" font-size="10.00">VectorNetworkProject</text>
<text text-anchor="start" x="186" y="-43.5" font-family="Helvetica,sans-Serif" font-size="10.00">\Framework\provider\EliasDB</text>
<text text-anchor="middle" x="249" y="-32.5" font-family="Helvetica,sans-Serif" font-size="10.00">\hasTable</text>
</a>
</g>
</g>
<!-- Node10&#45;&gt;Node11 -->
<g id="edge1" class="edge"><title>Node10&#45;&gt;Node11</title>
<path fill="none" stroke="midnightblue" d="M142.066,-30.9525C150.54,-32.1563 159.247,-33.393 167.852,-34.6154"/>
<polygon fill="midnightblue" stroke="midnightblue" points="167.495,-38.0997 177.888,-36.0409 168.48,-31.1693 167.495,-38.0997"/>
</g>
<!-- Node12 -->
<g id="node3" class="node"><title>Node12</title>
<g id="a_node3"><a xlink:href="../../d4/d20/class_vector_network_project_1_1_framework_1_1provider_1_1base_1_1_provider_base.xhtml#ac5ffa1cdb18ecfca69d7e4261acdbf4c" target="_top" xlink:title="VectorNetworkProject\l\\Framework\\provider\\base\l\\ProviderBase\\getFilePath">
<polygon fill="white" stroke="black" points="356,-0.5 356,-41.5 485,-41.5 485,-0.5 356,-0.5"/>
<text text-anchor="start" x="364" y="-29.5" font-family="Helvetica,sans-Serif" font-size="10.00">VectorNetworkProject</text>
<text text-anchor="start" x="364" y="-18.5" font-family="Helvetica,sans-Serif" font-size="10.00">\Framework\provider\base</text>
<text text-anchor="middle" x="420.5" y="-7.5" font-family="Helvetica,sans-Serif" font-size="10.00">\ProviderBase\getFilePath</text>
</a>
</g>
</g>
<!-- Node10&#45;&gt;Node12 -->
<g id="edge3" class="edge"><title>Node10&#45;&gt;Node12</title>
<path fill="none" stroke="midnightblue" d="M142.116,-17.2258C154.085,-16.7152 166.397,-16.2735 178,-16 241.094,-14.5128 256.909,-14.4158 320,-16 328.327,-16.2091 337.041,-16.5164 345.704,-16.8777"/>
<polygon fill="midnightblue" stroke="midnightblue" points="345.677,-20.3798 355.822,-17.3238 345.986,-13.3866 345.677,-20.3798"/>
</g>
<!-- Node11&#45;&gt;Node12 -->
<g id="edge2" class="edge"><title>Node11&#45;&gt;Node12</title>
<path fill="none" stroke="midnightblue" d="M320.411,-35.6149C328.752,-34.3846 337.285,-33.1261 345.673,-31.889"/>
<polygon fill="midnightblue" stroke="midnightblue" points="346.427,-35.3157 355.809,-30.394 345.405,-28.3907 346.427,-35.3157"/>
</g>
</g>
</svg>
