<?xml version="1.0" encoding="UTF-8" standalone="no"?>
<!DOCTYPE svg PUBLIC "-//W3C//DTD SVG 1.1//EN"
 "http://www.w3.org/Graphics/SVG/1.1/DTD/svg11.dtd">
<!-- Generated by graphviz version 2.38.0 (20140413.2041)
 -->
<!-- Title: VectorNetworkProject\Framework\provider\EliasDB\hasTable Pages: 1 -->
<svg width="328pt" height="110pt"
 viewBox="0.00 0.00 328.00 110.00" xmlns="http://www.w3.org/2000/svg" xmlns:xlink="http://www.w3.org/1999/xlink">
<g id="graph0" class="graph" transform="scale(1 1) rotate(0) translate(4 106)">
<title>VectorNetworkProject\Framework\provider\EliasDB\hasTable</title>
<polygon fill="white" stroke="none" points="-4,4 -4,-106 324,-106 324,4 -4,4"/>
<!-- Node24 -->
<g id="node1" class="node"><title>Node24</title>
<polygon fill="#bfbfbf" stroke="black" points="0,-30.5 0,-71.5 142,-71.5 142,-30.5 0,-30.5"/>
<text text-anchor="start" x="8" y="-59.5" font-family="Helvetica,sans-Serif" font-size="10.00">VectorNetworkProject</text>
<text text-anchor="start" x="8" y="-48.5" font-family="Helvetica,sans-Serif" font-size="10.00">\Framework\provider\EliasDB</text>
<text text-anchor="middle" x="71" y="-37.5" font-family="Helvetica,sans-Serif" font-size="10.00">\hasTable</text>
</g>
<!-- Node25 -->
<g id="node2" class="node"><title>Node25</title>
<g id="a_node2"><a xlink:href="../../d0/dfa/class_vector_network_project_1_1_framework_1_1provider_1_1_elias_d_b.xhtml#aa7596b6d7949b01159d8caae6b65ccfa" target="_top" xlink:title="VectorNetworkProject\l\\Framework\\provider\\EliasDB\l\\createTable">
<polygon fill="white" stroke="black" points="178,-60.5 178,-101.5 320,-101.5 320,-60.5 178,-60.5"/>
<text text-anchor="start" x="186" y="-89.5" font-family="Helvetica,sans-Serif" font-size="10.00">VectorNetworkProject</text>
<text text-anchor="start" x="186" y="-78.5" font-family="Helvetica,sans-Serif" font-size="10.00">\Framework\provider\EliasDB</text>
<text text-anchor="middle" x="249" y="-67.5" font-family="Helvetica,sans-Serif" font-size="10.00">\createTable</text>
</a>
</g>
</g>
<!-- Node24&#45;&gt;Node25 -->
<g id="edge1" class="edge"><title>Node24&#45;&gt;Node25</title>
<path fill="none" stroke="midnightblue" d="M152.101,-64.6535C160.706,-66.1203 169.412,-67.6044 177.888,-69.0491"/>
<polygon fill="midnightblue" stroke="midnightblue" points="152.512,-61.1731 142.066,-62.943 151.335,-68.0736 152.512,-61.1731"/>
</g>
<!-- Node26 -->
<g id="node3" class="node"><title>Node26</title>
<g id="a_node3"><a xlink:href="../../d0/dfa/class_vector_network_project_1_1_framework_1_1provider_1_1_elias_d_b.xhtml#aedf1a8787bf1d893c9a41683564a8e41" target="_top" xlink:title="VectorNetworkProject\l\\Framework\\provider\\EliasDB\l\\deleteTable">
<polygon fill="white" stroke="black" points="178,-0.5 178,-41.5 320,-41.5 320,-0.5 178,-0.5"/>
<text text-anchor="start" x="186" y="-29.5" font-family="Helvetica,sans-Serif" font-size="10.00">VectorNetworkProject</text>
<text text-anchor="start" x="186" y="-18.5" font-family="Helvetica,sans-Serif" font-size="10.00">\Framework\provider\EliasDB</text>
<text text-anchor="middle" x="249" y="-7.5" font-family="Helvetica,sans-Serif" font-size="10.00">\deleteTable</text>
</a>
</g>
</g>
<!-- Node24&#45;&gt;Node26 -->
<g id="edge2" class="edge"><title>Node24&#45;&gt;Node26</title>
<path fill="none" stroke="midnightblue" d="M152.101,-37.3465C160.706,-35.8797 169.412,-34.3956 177.888,-32.9509"/>
<polygon fill="midnightblue" stroke="midnightblue" points="151.335,-33.9264 142.066,-39.057 152.512,-40.8269 151.335,-33.9264"/>
</g>
</g>
</svg>
