<?xml version="1.0" encoding="UTF-8" standalone="no"?>
<!DOCTYPE svg PUBLIC "-//W3C//DTD SVG 1.1//EN"
 "http://www.w3.org/Graphics/SVG/1.1/DTD/svg11.dtd">
<!-- Generated by graphviz version 2.38.0 (20140413.2041)
 -->
<!-- Title: VectorNetworkProject\Framework\provider\EliasDB\hasTable Pages: 1 -->
<svg width="315pt" height="50pt"
 viewBox="0.00 0.00 315.00 50.00" xmlns="http://www.w3.org/2000/svg" xmlns:xlink="http://www.w3.org/1999/xlink">
<g id="graph0" class="graph" transform="scale(1 1) rotate(0) translate(4 46)">
<title>VectorNetworkProject\Framework\provider\EliasDB\hasTable</title>
<polygon fill="white" stroke="none" points="-4,4 -4,-46 311,-46 311,4 -4,4"/>
<!-- Node22 -->
<g id="node1" class="node"><title>Node22</title>
<polygon fill="#bfbfbf" stroke="black" points="0,-0.5 0,-41.5 142,-41.5 142,-0.5 0,-0.5"/>
<text text-anchor="start" x="8" y="-29.5" font-family="Helvetica,sans-Serif" font-size="10.00">VectorNetworkProject</text>
<text text-anchor="start" x="8" y="-18.5" font-family="Helvetica,sans-Serif" font-size="10.00">\Framework\provider\EliasDB</text>
<text text-anchor="middle" x="71" y="-7.5" font-family="Helvetica,sans-Serif" font-size="10.00">\hasTable</text>
</g>
<!-- Node23 -->
<g id="node2" class="node"><title>Node23</title>
<g id="a_node2"><a xlink:href="../../d4/d20/class_vector_network_project_1_1_framework_1_1provider_1_1base_1_1_provider_base.xhtml#ac5ffa1cdb18ecfca69d7e4261acdbf4c" target="_top" xlink:title="VectorNetworkProject\l\\Framework\\provider\\base\l\\ProviderBase\\getFilePath">
<polygon fill="white" stroke="black" points="178,-0.5 178,-41.5 307,-41.5 307,-0.5 178,-0.5"/>
<text text-anchor="start" x="186" y="-29.5" font-family="Helvetica,sans-Serif" font-size="10.00">VectorNetworkProject</text>
<text text-anchor="start" x="186" y="-18.5" font-family="Helvetica,sans-Serif" font-size="10.00">\Framework\provider\base</text>
<text text-anchor="middle" x="242.5" y="-7.5" font-family="Helvetica,sans-Serif" font-size="10.00">\ProviderBase\getFilePath</text>
</a>
</g>
</g>
<!-- Node22&#45;&gt;Node23 -->
<g id="edge1" class="edge"><title>Node22&#45;&gt;Node23</title>
<path fill="none" stroke="midnightblue" d="M142.411,-21C150.752,-21 159.285,-21 167.673,-21"/>
<polygon fill="midnightblue" stroke="midnightblue" points="167.809,-24.5001 177.809,-21 167.809,-17.5001 167.809,-24.5001"/>
</g>
</g>
</svg>
