<?xml version="1.0" encoding="UTF-8" standalone="no"?>
<!DOCTYPE svg PUBLIC "-//W3C//DTD SVG 1.1//EN"
 "http://www.w3.org/Graphics/SVG/1.1/DTD/svg11.dtd">
<!-- Generated by graphviz version 2.38.0 (20140413.2041)
 -->
<!-- Title: VectorNetworkProject\Framework\provider\EliasDB Pages: 1 -->
<svg width="314pt" height="110pt"
 viewBox="0.00 0.00 314.00 110.00" xmlns="http://www.w3.org/2000/svg" xmlns:xlink="http://www.w3.org/1999/xlink">
<g id="graph0" class="graph" transform="scale(1 1) rotate(0) translate(4 106)">
<title>VectorNetworkProject\Framework\provider\EliasDB</title>
<polygon fill="white" stroke="none" points="-4,4 -4,-106 310,-106 310,4 -4,4"/>
<!-- Node3 -->
<g id="node1" class="node"><title>Node3</title>
<polygon fill="#bfbfbf" stroke="black" points="164,-36 164,-66 306,-66 306,-36 164,-36"/>
<text text-anchor="start" x="172" y="-54" font-family="Helvetica,sans-Serif" font-size="10.00">VectorNetworkProject</text>
<text text-anchor="middle" x="235" y="-43" font-family="Helvetica,sans-Serif" font-size="10.00">\Framework\provider\EliasDB</text>
</g>
<!-- Node4 -->
<g id="node2" class="node"><title>Node4</title>
<g id="a_node2"><a xlink:href="../../d4/d20/class_vector_network_project_1_1_framework_1_1provider_1_1base_1_1_provider_base.xhtml" target="_top" xlink:title="VectorNetworkProject\l\\Framework\\provider\\base\l\\ProviderBase">
<polygon fill="white" stroke="black" points="0,-60.5 0,-101.5 128,-101.5 128,-60.5 0,-60.5"/>
<text text-anchor="start" x="8" y="-89.5" font-family="Helvetica,sans-Serif" font-size="10.00">VectorNetworkProject</text>
<text text-anchor="start" x="8" y="-78.5" font-family="Helvetica,sans-Serif" font-size="10.00">\Framework\provider\base</text>
<text text-anchor="middle" x="64" y="-67.5" font-family="Helvetica,sans-Serif" font-size="10.00">\ProviderBase</text>
</a>
</g>
</g>
<!-- Node4&#45;&gt;Node3 -->
<g id="edge1" class="edge"><title>Node4&#45;&gt;Node3</title>
<path fill="none" stroke="midnightblue" d="M138.323,-67.9841C146.846,-66.4712 155.523,-64.9309 163.999,-63.4262"/>
<polygon fill="midnightblue" stroke="midnightblue" points="137.644,-64.5497 128.41,-69.7438 138.868,-71.442 137.644,-64.5497"/>
</g>
<!-- Node5 -->
<g id="node3" class="node"><title>Node5</title>
<g id="a_node3"><a xlink:href="../../d9/dd5/interface_vector_network_project_1_1_framework_1_1provider_1_1base_1_1_provider.xhtml" target="_top" xlink:title="VectorNetworkProject\l\\Framework\\provider\\base\l\\Provider">
<polygon fill="white" stroke="black" points="0,-0.5 0,-41.5 128,-41.5 128,-0.5 0,-0.5"/>
<text text-anchor="start" x="8" y="-29.5" font-family="Helvetica,sans-Serif" font-size="10.00">VectorNetworkProject</text>
<text text-anchor="start" x="8" y="-18.5" font-family="Helvetica,sans-Serif" font-size="10.00">\Framework\provider\base</text>
<text text-anchor="middle" x="64" y="-7.5" font-family="Helvetica,sans-Serif" font-size="10.00">\Provider</text>
</a>
</g>
</g>
<!-- Node5&#45;&gt;Node3 -->
<g id="edge2" class="edge"><title>Node5&#45;&gt;Node3</title>
<path fill="none" stroke="midnightblue" d="M138.323,-34.0159C146.846,-35.5288 155.523,-37.0691 163.999,-38.5738"/>
<polygon fill="midnightblue" stroke="midnightblue" points="138.868,-30.558 128.41,-32.2562 137.644,-37.4503 138.868,-30.558"/>
</g>
</g>
</svg>
