<?xml version="1.0" encoding="UTF-8" standalone="no"?>
<!DOCTYPE svg PUBLIC "-//W3C//DTD SVG 1.1//EN"
 "http://www.w3.org/Graphics/SVG/1.1/DTD/svg11.dtd">
<!-- Generated by graphviz version 2.38.0 (20140413.2041)
 -->
<!-- Title: VectorNetworkProject\Framework\EliasCore\getPlugin Pages: 1 -->
<svg width="306pt" height="50pt"
 viewBox="0.00 0.00 306.00 50.00" xmlns="http://www.w3.org/2000/svg" xmlns:xlink="http://www.w3.org/1999/xlink">
<g id="graph0" class="graph" transform="scale(1 1) rotate(0) translate(4 46)">
<title>VectorNetworkProject\Framework\EliasCore\getPlugin</title>
<polygon fill="white" stroke="none" points="-4,4 -4,-46 302,-46 302,4 -4,4"/>
<!-- Node3 -->
<g id="node1" class="node"><title>Node3</title>
<polygon fill="#bfbfbf" stroke="black" points="0,-0.5 0,-41.5 113,-41.5 113,-0.5 0,-0.5"/>
<text text-anchor="start" x="8" y="-29.5" font-family="Helvetica,sans-Serif" font-size="10.00">VectorNetworkProject</text>
<text text-anchor="start" x="8" y="-18.5" font-family="Helvetica,sans-Serif" font-size="10.00">\Framework\EliasCore</text>
<text text-anchor="middle" x="56.5" y="-7.5" font-family="Helvetica,sans-Serif" font-size="10.00">\getPlugin</text>
</g>
<!-- Node4 -->
<g id="node2" class="node"><title>Node4</title>
<g id="a_node2"><a xlink:href="../../de/ded/class_vector_network_project_1_1_framework_1_1player_1_1_elias_player.xhtml#ae09012d65d7a67fd7926bc3486397944" target="_top" xlink:title="VectorNetworkProject\l\\Framework\\player\\EliasPlayer\l\\getDataDirectory">
<polygon fill="white" stroke="black" points="149,-0.5 149,-41.5 298,-41.5 298,-0.5 149,-0.5"/>
<text text-anchor="start" x="157" y="-29.5" font-family="Helvetica,sans-Serif" font-size="10.00">VectorNetworkProject</text>
<text text-anchor="start" x="157" y="-18.5" font-family="Helvetica,sans-Serif" font-size="10.00">\Framework\player\EliasPlayer</text>
<text text-anchor="middle" x="223.5" y="-7.5" font-family="Helvetica,sans-Serif" font-size="10.00">\getDataDirectory</text>
</a>
</g>
</g>
<!-- Node3&#45;&gt;Node4 -->
<g id="edge1" class="edge"><title>Node3&#45;&gt;Node4</title>
<path fill="none" stroke="midnightblue" d="M123.419,-21C131.781,-21 140.379,-21 148.852,-21"/>
<polygon fill="midnightblue" stroke="midnightblue" points="123.362,-17.5001 113.361,-21 123.361,-24.5001 123.362,-17.5001"/>
</g>
</g>
</svg>
