<?xml version="1.0" encoding="UTF-8" standalone="no"?>
<!DOCTYPE svg PUBLIC "-//W3C//DTD SVG 1.1//EN"
 "http://www.w3.org/Graphics/SVG/1.1/DTD/svg11.dtd">
<!-- Generated by graphviz version 2.36.0 (20140111.2315)
 -->
<!-- Title: VectorNetworkProject\Framework\command\PlayerCommand Pages: 1 -->
<svg width="198pt" height="174pt"
 viewBox="0.00 0.00 198.00 174.00" xmlns="http://www.w3.org/2000/svg" xmlns:xlink="http://www.w3.org/1999/xlink">
<g id="graph0" class="graph" transform="scale(1 1) rotate(0) translate(4 170)">
<title>VectorNetworkProject\Framework\command\PlayerCommand</title>
<polygon fill="white" stroke="none" points="-4,4 -4,-170 194,-170 194,4 -4,4"/>
<!-- Node1 -->
<g id="node1" class="node"><title>Node1</title>
<polygon fill="#bfbfbf" stroke="black" points="0,-79 0,-109 190,-109 190,-79 0,-79"/>
<text text-anchor="start" x="8" y="-97" font-family="Helvetica,sans-Serif" font-size="10.00">VectorNetworkProject</text>
<text text-anchor="middle" x="95" y="-86" font-family="Helvetica,sans-Serif" font-size="10.00">\Framework\command\PlayerCommand</text>
</g>
<!-- Node3 -->
<g id="node3" class="node"><title>Node3</title>
<g id="a_node3"><a xlink:href="../../df/ddd/class_vector_network_project_1_1_framework_1_1command_1_1defaults_1_1_ping_command.xhtml" target="_top" xlink:title="VectorNetworkProject\l\\Framework\\command\\defaults\l\\PingCommand">
<polygon fill="white" stroke="black" points="19,-0.5 19,-41.5 171,-41.5 171,-0.5 19,-0.5"/>
<text text-anchor="start" x="27" y="-29.5" font-family="Helvetica,sans-Serif" font-size="10.00">VectorNetworkProject</text>
<text text-anchor="start" x="27" y="-18.5" font-family="Helvetica,sans-Serif" font-size="10.00">\Framework\command\defaults</text>
<text text-anchor="middle" x="95" y="-7.5" font-family="Helvetica,sans-Serif" font-size="10.00">\PingCommand</text>
</a>
</g>
</g>
<!-- Node1&#45;&gt;Node3 -->
<g id="edge2" class="edge"><title>Node1&#45;&gt;Node3</title>
<path fill="none" stroke="midnightblue" d="M95,-68.8534C95,-59.9872 95,-50.065 95,-41.642"/>
<polygon fill="midnightblue" stroke="midnightblue" points="91.5001,-68.9727 95,-78.9727 98.5001,-68.9727 91.5001,-68.9727"/>
</g>
<!-- Node2 -->
<g id="node2" class="node"><title>Node2</title>
<polygon fill="white" stroke="#bfbfbf" points="64,-146.5 64,-165.5 126,-165.5 126,-146.5 64,-146.5"/>
<text text-anchor="middle" x="95" y="-153.5" font-family="Helvetica,sans-Serif" font-size="10.00">Command</text>
</g>
<!-- Node2&#45;&gt;Node1 -->
<g id="edge1" class="edge"><title>Node2&#45;&gt;Node1</title>
<path fill="none" stroke="midnightblue" d="M95,-136.371C95,-127.585 95,-117.272 95,-109.141"/>
<polygon fill="midnightblue" stroke="midnightblue" points="91.5001,-136.403 95,-146.403 98.5001,-136.403 91.5001,-136.403"/>
</g>
</g>
</svg>
