<?xml version="1.0" encoding="UTF-8" standalone="no"?>
<!DOCTYPE svg PUBLIC "-//W3C//DTD SVG 1.1//EN"
 "http://www.w3.org/Graphics/SVG/1.1/DTD/svg11.dtd">
<!-- Generated by graphviz version 2.36.0 (20140111.2315)
 -->
<!-- Title: VectorNetworkProject\Framework\util\Constants\setOption Pages: 1 -->
<svg width="306pt" height="48pt"
 viewBox="0.00 0.00 306.00 48.00" xmlns="http://www.w3.org/2000/svg" xmlns:xlink="http://www.w3.org/1999/xlink">
<g id="graph0" class="graph" transform="scale(1 1) rotate(0) translate(4 44)">
<title>VectorNetworkProject\Framework\util\Constants\setOption</title>
<polygon fill="white" stroke="none" points="-4,4 -4,-44 302,-44 302,4 -4,4"/>
<!-- Node1 -->
<g id="node1" class="node"><title>Node1</title>
<polygon fill="#bfbfbf" stroke="black" points="0,0.5 0,-40.5 132,-40.5 132,0.5 0,0.5"/>
<text text-anchor="start" x="8" y="-28.5" font-family="Helvetica,sans-Serif" font-size="10.00">VectorNetworkProject</text>
<text text-anchor="start" x="8" y="-17.5" font-family="Helvetica,sans-Serif" font-size="10.00">\Framework\util\Constants</text>
<text text-anchor="middle" x="66" y="-6.5" font-family="Helvetica,sans-Serif" font-size="10.00">\setOption</text>
</g>
<!-- Node2 -->
<g id="node2" class="node"><title>Node2</title>
<g id="a_node2"><a xlink:href="../../d0/d48/class_vector_network_project_1_1_framework_1_1_elias_core.xhtml#a15d65d3e97ee0d92893b453cfff33290" target="_top" xlink:title="VectorNetworkProject\l\\Framework\\EliasCore\\init">
<polygon fill="white" stroke="black" points="168,-5 168,-35 298,-35 298,-5 168,-5"/>
<text text-anchor="start" x="176" y="-23" font-family="Helvetica,sans-Serif" font-size="10.00">VectorNetworkProject</text>
<text text-anchor="middle" x="233" y="-12" font-family="Helvetica,sans-Serif" font-size="10.00">\Framework\EliasCore\init</text>
</a>
</g>
</g>
<!-- Node1&#45;&gt;Node2 -->
<g id="edge1" class="edge"><title>Node1&#45;&gt;Node2</title>
<path fill="none" stroke="midnightblue" d="M142.465,-20C150.931,-20 159.496,-20 167.801,-20"/>
<polygon fill="midnightblue" stroke="midnightblue" points="142.212,-16.5001 132.212,-20 142.212,-23.5001 142.212,-16.5001"/>
</g>
</g>
</svg>
