<?xml version="1.0" encoding="UTF-8" standalone="no"?>
<!DOCTYPE svg PUBLIC "-//W3C//DTD SVG 1.1//EN"
 "http://www.w3.org/Graphics/SVG/1.1/DTD/svg11.dtd">
<!-- Generated by graphviz version 2.36.0 (20140111.2315)
 -->
<!-- Title: VectorNetworkProject\Framework\player\EliasPlayer\getDataDirectory Pages: 1 -->
<svg width="344pt" height="109pt"
 viewBox="0.00 0.00 344.00 109.00" xmlns="http://www.w3.org/2000/svg" xmlns:xlink="http://www.w3.org/1999/xlink">
<g id="graph0" class="graph" transform="scale(1 1) rotate(0) translate(4 105)">
<title>VectorNetworkProject\Framework\player\EliasPlayer\getDataDirectory</title>
<polygon fill="white" stroke="none" points="-4,4 -4,-105 340,-105 340,4 -4,4"/>
<!-- Node1 -->
<g id="node1" class="node"><title>Node1</title>
<polygon fill="#bfbfbf" stroke="black" points="0,-29.5 0,-70.5 150,-70.5 150,-29.5 0,-29.5"/>
<text text-anchor="start" x="8" y="-58.5" font-family="Helvetica,sans-Serif" font-size="10.00">VectorNetworkProject</text>
<text text-anchor="start" x="8" y="-47.5" font-family="Helvetica,sans-Serif" font-size="10.00">\Framework\player\EliasPlayer</text>
<text text-anchor="middle" x="75" y="-36.5" font-family="Helvetica,sans-Serif" font-size="10.00">\getDataDirectory</text>
</g>
<!-- Node2 -->
<g id="node2" class="node"><title>Node2</title>
<g id="a_node2"><a xlink:href="../../d0/d48/class_vector_network_project_1_1_framework_1_1_elias_core.xhtml#a8398f07f48a9f494d291ae273838eb73" target="_top" xlink:title="VectorNetworkProject\l\\Framework\\EliasCore\l\\getPlugin">
<polygon fill="white" stroke="black" points="204,-59.5 204,-100.5 318,-100.5 318,-59.5 204,-59.5"/>
<text text-anchor="start" x="212" y="-88.5" font-family="Helvetica,sans-Serif" font-size="10.00">VectorNetworkProject</text>
<text text-anchor="start" x="212" y="-77.5" font-family="Helvetica,sans-Serif" font-size="10.00">\Framework\EliasCore</text>
<text text-anchor="middle" x="261" y="-66.5" font-family="Helvetica,sans-Serif" font-size="10.00">\getPlugin</text>
</a>
</g>
</g>
<!-- Node1&#45;&gt;Node2 -->
<g id="edge1" class="edge"><title>Node1&#45;&gt;Node2</title>
<path fill="none" stroke="midnightblue" d="M150.044,-62.0725C164.509,-64.4308 179.589,-66.8895 193.779,-69.2031"/>
<polygon fill="midnightblue" stroke="midnightblue" points="193.5,-72.7038 203.933,-70.8586 194.627,-65.795 193.5,-72.7038"/>
</g>
<!-- Node3 -->
<g id="node3" class="node"><title>Node3</title>
<g id="a_node3"><a xlink:href="../../de/ded/class_vector_network_project_1_1_framework_1_1player_1_1_elias_player.xhtml#a0ec048ad41631c35c4fa8bd2e0c0fa6e" target="_top" xlink:title="VectorNetworkProject\l\\Framework\\player\\EliasPlayer\l\\getPlayer">
<polygon fill="white" stroke="black" points="186,0.5 186,-40.5 336,-40.5 336,0.5 186,0.5"/>
<text text-anchor="start" x="194" y="-28.5" font-family="Helvetica,sans-Serif" font-size="10.00">VectorNetworkProject</text>
<text text-anchor="start" x="194" y="-17.5" font-family="Helvetica,sans-Serif" font-size="10.00">\Framework\player\EliasPlayer</text>
<text text-anchor="middle" x="261" y="-6.5" font-family="Helvetica,sans-Serif" font-size="10.00">\getPlayer</text>
</a>
</g>
</g>
<!-- Node1&#45;&gt;Node3 -->
<g id="edge2" class="edge"><title>Node1&#45;&gt;Node3</title>
<path fill="none" stroke="midnightblue" d="M150.044,-37.9275C158.514,-36.5466 167.195,-35.1313 175.784,-33.7308"/>
<polygon fill="midnightblue" stroke="midnightblue" points="176.501,-37.1603 185.808,-32.0966 175.375,-30.2515 176.501,-37.1603"/>
</g>
</g>
</svg>
