<?xml version="1.0" encoding="UTF-8" standalone="no"?>
<!DOCTYPE svg PUBLIC "-//W3C//DTD SVG 1.1//EN"
 "http://www.w3.org/Graphics/SVG/1.1/DTD/svg11.dtd">
<!-- Generated by graphviz version 2.36.0 (20140111.2315)
 -->
<!-- Title: VectorNetworkProject\Framework\player\EliasPlayer\getPlayer Pages: 1 -->
<svg width="344pt" height="48pt"
 viewBox="0.00 0.00 344.00 48.00" xmlns="http://www.w3.org/2000/svg" xmlns:xlink="http://www.w3.org/1999/xlink">
<g id="graph0" class="graph" transform="scale(1 1) rotate(0) translate(4 44)">
<title>VectorNetworkProject\Framework\player\EliasPlayer\getPlayer</title>
<polygon fill="white" stroke="none" points="-4,4 -4,-44 340,-44 340,4 -4,4"/>
<!-- Node1 -->
<g id="node1" class="node"><title>Node1</title>
<polygon fill="#bfbfbf" stroke="black" points="0,0.5 0,-40.5 150,-40.5 150,0.5 0,0.5"/>
<text text-anchor="start" x="8" y="-28.5" font-family="Helvetica,sans-Serif" font-size="10.00">VectorNetworkProject</text>
<text text-anchor="start" x="8" y="-17.5" font-family="Helvetica,sans-Serif" font-size="10.00">\Framework\player\EliasPlayer</text>
<text text-anchor="middle" x="75" y="-6.5" font-family="Helvetica,sans-Serif" font-size="10.00">\getPlayer</text>
</g>
<!-- Node2 -->
<g id="node2" class="node"><title>Node2</title>
<g id="a_node2"><a xlink:href="../../de/ded/class_vector_network_project_1_1_framework_1_1player_1_1_elias_player.xhtml#ae09012d65d7a67fd7926bc3486397944" target="_top" xlink:title="VectorNetworkProject\l\\Framework\\player\\EliasPlayer\l\\getDataDirectory">
<polygon fill="white" stroke="black" points="186,0.5 186,-40.5 336,-40.5 336,0.5 186,0.5"/>
<text text-anchor="start" x="194" y="-28.5" font-family="Helvetica,sans-Serif" font-size="10.00">VectorNetworkProject</text>
<text text-anchor="start" x="194" y="-17.5" font-family="Helvetica,sans-Serif" font-size="10.00">\Framework\player\EliasPlayer</text>
<text text-anchor="middle" x="261" y="-6.5" font-family="Helvetica,sans-Serif" font-size="10.00">\getDataDirectory</text>
</a>
</g>
</g>
<!-- Node1&#45;&gt;Node2 -->
<g id="edge1" class="edge"><title>Node1&#45;&gt;Node2</title>
<path fill="none" stroke="midnightblue" d="M160.066,-20C168.654,-20 177.336,-20 185.808,-20"/>
<polygon fill="midnightblue" stroke="midnightblue" points="160.045,-16.5001 150.044,-20 160.044,-23.5001 160.045,-16.5001"/>
</g>
</g>
</svg>
