<?xml version="1.0" encoding="UTF-8" standalone="no"?>
<!DOCTYPE svg PUBLIC "-//W3C//DTD SVG 1.1//EN"
 "http://www.w3.org/Graphics/SVG/1.1/DTD/svg11.dtd">
<!-- Generated by graphviz version 2.36.0 (20140111.2315)
 -->
<!-- Title: VectorNetworkProject\Framework\command\PlayerCommand\PermissionManager Pages: 1 -->
<svg width="424pt" height="48pt"
 viewBox="0.00 0.00 424.00 48.00" xmlns="http://www.w3.org/2000/svg" xmlns:xlink="http://www.w3.org/1999/xlink">
<g id="graph0" class="graph" transform="scale(1 1) rotate(0) translate(4 44)">
<title>VectorNetworkProject\Framework\command\PlayerCommand\PermissionManager</title>
<polygon fill="white" stroke="none" points="-4,4 -4,-44 420,-44 420,4 -4,4"/>
<!-- Node1 -->
<g id="node1" class="node"><title>Node1</title>
<polygon fill="#bfbfbf" stroke="black" points="0,0.5 0,-40.5 190,-40.5 190,0.5 0,0.5"/>
<text text-anchor="start" x="8" y="-28.5" font-family="Helvetica,sans-Serif" font-size="10.00">VectorNetworkProject</text>
<text text-anchor="start" x="8" y="-17.5" font-family="Helvetica,sans-Serif" font-size="10.00">\Framework\command\PlayerCommand</text>
<text text-anchor="middle" x="95" y="-6.5" font-family="Helvetica,sans-Serif" font-size="10.00">\PermissionManager</text>
</g>
<!-- Node2 -->
<g id="node2" class="node"><title>Node2</title>
<g id="a_node2"><a xlink:href="../../d6/d2d/class_vector_network_project_1_1_framework_1_1command_1_1_player_command.xhtml#a8bc9d8e2c79c7a9dd50e5db4e2cbf647" target="_top" xlink:title="VectorNetworkProject\l\\Framework\\command\\PlayerCommand\l\\__construct">
<polygon fill="white" stroke="black" points="226,0.5 226,-40.5 416,-40.5 416,0.5 226,0.5"/>
<text text-anchor="start" x="234" y="-28.5" font-family="Helvetica,sans-Serif" font-size="10.00">VectorNetworkProject</text>
<text text-anchor="start" x="234" y="-17.5" font-family="Helvetica,sans-Serif" font-size="10.00">\Framework\command\PlayerCommand</text>
<text text-anchor="middle" x="321" y="-6.5" font-family="Helvetica,sans-Serif" font-size="10.00">\__construct</text>
</a>
</g>
</g>
<!-- Node1&#45;&gt;Node2 -->
<g id="edge1" class="edge"><title>Node1&#45;&gt;Node2</title>
<path fill="none" stroke="midnightblue" d="M200.077,-20C208.676,-20 217.338,-20 225.859,-20"/>
<polygon fill="midnightblue" stroke="midnightblue" points="200.023,-16.5001 190.023,-20 200.023,-23.5001 200.023,-16.5001"/>
</g>
</g>
</svg>
