<?xml version="1.0" encoding="UTF-8" standalone="no"?>
<!DOCTYPE svg PUBLIC "-//W3C//DTD SVG 1.1//EN"
 "http://www.w3.org/Graphics/SVG/1.1/DTD/svg11.dtd">
<!-- Generated by graphviz version 2.38.0 (20140413.2041)
 -->
<!-- Title: VectorNetworkProject\Framework\command\PlayerCommand\onCommand Pages: 1 -->
<svg width="420pt" height="50pt"
 viewBox="0.00 0.00 420.00 50.00" xmlns="http://www.w3.org/2000/svg" xmlns:xlink="http://www.w3.org/1999/xlink">
<g id="graph0" class="graph" transform="scale(1 1) rotate(0) translate(4 46)">
<title>VectorNetworkProject\Framework\command\PlayerCommand\onCommand</title>
<polygon fill="white" stroke="none" points="-4,4 -4,-46 416,-46 416,4 -4,4"/>
<!-- Node9 -->
<g id="node1" class="node"><title>Node9</title>
<polygon fill="#bfbfbf" stroke="black" points="0,-0.5 0,-41.5 188,-41.5 188,-0.5 0,-0.5"/>
<text text-anchor="start" x="8" y="-29.5" font-family="Helvetica,sans-Serif" font-size="10.00">VectorNetworkProject</text>
<text text-anchor="start" x="8" y="-18.5" font-family="Helvetica,sans-Serif" font-size="10.00">\Framework\command\PlayerCommand</text>
<text text-anchor="middle" x="94" y="-7.5" font-family="Helvetica,sans-Serif" font-size="10.00">\onCommand</text>
</g>
<!-- Node10 -->
<g id="node2" class="node"><title>Node10</title>
<g id="a_node2"><a xlink:href="../../d6/d2d/class_vector_network_project_1_1_framework_1_1command_1_1_player_command.xhtml#adc4f6ab170cc6f978980683207b6a2a8" target="_top" xlink:title="VectorNetworkProject\l\\Framework\\command\\PlayerCommand\l\\execute">
<polygon fill="white" stroke="black" points="224,-0.5 224,-41.5 412,-41.5 412,-0.5 224,-0.5"/>
<text text-anchor="start" x="232" y="-29.5" font-family="Helvetica,sans-Serif" font-size="10.00">VectorNetworkProject</text>
<text text-anchor="start" x="232" y="-18.5" font-family="Helvetica,sans-Serif" font-size="10.00">\Framework\command\PlayerCommand</text>
<text text-anchor="middle" x="318" y="-7.5" font-family="Helvetica,sans-Serif" font-size="10.00">\execute</text>
</a>
</g>
</g>
<!-- Node9&#45;&gt;Node10 -->
<g id="edge1" class="edge"><title>Node9&#45;&gt;Node10</title>
<path fill="none" stroke="midnightblue" d="M198.425,-21C206.857,-21 215.347,-21 223.7,-21"/>
<polygon fill="midnightblue" stroke="midnightblue" points="198.183,-17.5001 188.183,-21 198.183,-24.5001 198.183,-17.5001"/>
</g>
</g>
</svg>
