<?xml version="1.0" encoding="UTF-8" standalone="no"?>
<!DOCTYPE svg PUBLIC "-//W3C//DTD SVG 1.1//EN"
 "http://www.w3.org/Graphics/SVG/1.1/DTD/svg11.dtd">
<!-- Generated by graphviz version 2.38.0 (20140413.2041)
 -->
<!-- Title: VectorNetworkProject\Framework\player\EliasPlayer\getDataDirectory Pages: 1 -->
<svg width="342pt" height="110pt"
 viewBox="0.00 0.00 342.00 110.00" xmlns="http://www.w3.org/2000/svg" xmlns:xlink="http://www.w3.org/1999/xlink">
<g id="graph0" class="graph" transform="scale(1 1) rotate(0) translate(4 106)">
<title>VectorNetworkProject\Framework\player\EliasPlayer\getDataDirectory</title>
<polygon fill="white" stroke="none" points="-4,4 -4,-106 338,-106 338,4 -4,4"/>
<!-- Node2 -->
<g id="node1" class="node"><title>Node2</title>
<polygon fill="#bfbfbf" stroke="black" points="0,-30.5 0,-71.5 149,-71.5 149,-30.5 0,-30.5"/>
<text text-anchor="start" x="8" y="-59.5" font-family="Helvetica,sans-Serif" font-size="10.00">VectorNetworkProject</text>
<text text-anchor="start" x="8" y="-48.5" font-family="Helvetica,sans-Serif" font-size="10.00">\Framework\player\EliasPlayer</text>
<text text-anchor="middle" x="74.5" y="-37.5" font-family="Helvetica,sans-Serif" font-size="10.00">\getDataDirectory</text>
</g>
<!-- Node3 -->
<g id="node2" class="node"><title>Node3</title>
<g id="a_node2"><a xlink:href="../../d0/d48/class_vector_network_project_1_1_framework_1_1_elias_core.xhtml#a8398f07f48a9f494d291ae273838eb73" target="_top" xlink:title="VectorNetworkProject\l\\Framework\\EliasCore\l\\getPlugin">
<polygon fill="white" stroke="black" points="203,-60.5 203,-101.5 316,-101.5 316,-60.5 203,-60.5"/>
<text text-anchor="start" x="211" y="-89.5" font-family="Helvetica,sans-Serif" font-size="10.00">VectorNetworkProject</text>
<text text-anchor="start" x="211" y="-78.5" font-family="Helvetica,sans-Serif" font-size="10.00">\Framework\EliasCore</text>
<text text-anchor="middle" x="259.5" y="-67.5" font-family="Helvetica,sans-Serif" font-size="10.00">\getPlugin</text>
</a>
</g>
</g>
<!-- Node2&#45;&gt;Node3 -->
<g id="edge1" class="edge"><title>Node2&#45;&gt;Node3</title>
<path fill="none" stroke="midnightblue" d="M149.142,-63.0725C163.528,-65.4308 178.526,-67.8895 192.639,-70.2031"/>
<polygon fill="midnightblue" stroke="midnightblue" points="192.303,-73.6947 202.738,-71.8586 193.436,-66.7869 192.303,-73.6947"/>
</g>
<!-- Node4 -->
<g id="node3" class="node"><title>Node4</title>
<g id="a_node3"><a xlink:href="../../de/ded/class_vector_network_project_1_1_framework_1_1player_1_1_elias_player.xhtml#a0ec048ad41631c35c4fa8bd2e0c0fa6e" target="_top" xlink:title="VectorNetworkProject\l\\Framework\\player\\EliasPlayer\l\\getPlayer">
<polygon fill="white" stroke="black" points="185,-0.5 185,-41.5 334,-41.5 334,-0.5 185,-0.5"/>
<text text-anchor="start" x="193" y="-29.5" font-family="Helvetica,sans-Serif" font-size="10.00">VectorNetworkProject</text>
<text text-anchor="start" x="193" y="-18.5" font-family="Helvetica,sans-Serif" font-size="10.00">\Framework\player\EliasPlayer</text>
<text text-anchor="middle" x="259.5" y="-7.5" font-family="Helvetica,sans-Serif" font-size="10.00">\getPlayer</text>
</a>
</g>
</g>
<!-- Node2&#45;&gt;Node4 -->
<g id="edge2" class="edge"><title>Node2&#45;&gt;Node4</title>
<path fill="none" stroke="midnightblue" d="M149.142,-38.9275C157.565,-37.5466 166.199,-36.1313 174.742,-34.7308"/>
<polygon fill="midnightblue" stroke="midnightblue" points="175.409,-38.1683 184.711,-33.0966 174.276,-31.2605 175.409,-38.1683"/>
</g>
</g>
</svg>
