<?xml version="1.0" encoding="UTF-8" standalone="no"?>
<!DOCTYPE svg PUBLIC "-//W3C//DTD SVG 1.1//EN"
 "http://www.w3.org/Graphics/SVG/1.1/DTD/svg11.dtd">
<!-- Generated by graphviz version 2.38.0 (20140413.2041)
 -->
<!-- Title: VectorNetworkProject\Framework\provider\base\ProviderBase Pages: 1 -->
<svg width="150pt" height="117pt"
 viewBox="0.00 0.00 150.00 117.00" xmlns="http://www.w3.org/2000/svg" xmlns:xlink="http://www.w3.org/1999/xlink">
<g id="graph0" class="graph" transform="scale(1 1) rotate(0) translate(4 113)">
<title>VectorNetworkProject\Framework\provider\base\ProviderBase</title>
<polygon fill="white" stroke="none" points="-4,4 -4,-113 146,-113 146,4 -4,4"/>
<!-- Node0 -->
<g id="node1" class="node"><title>Node0</title>
<polygon fill="#bfbfbf" stroke="black" points="7,-67.5 7,-108.5 135,-108.5 135,-67.5 7,-67.5"/>
<text text-anchor="start" x="15" y="-96.5" font-family="Helvetica,sans-Serif" font-size="10.00">VectorNetworkProject</text>
<text text-anchor="start" x="15" y="-85.5" font-family="Helvetica,sans-Serif" font-size="10.00">\Framework\provider\base</text>
<text text-anchor="middle" x="71" y="-74.5" font-family="Helvetica,sans-Serif" font-size="10.00">\ProviderBase</text>
</g>
<!-- Node1 -->
<g id="node2" class="node"><title>Node1</title>
<g id="a_node2"><a xlink:href="../../d0/dfa/class_vector_network_project_1_1_framework_1_1provider_1_1_elias_d_b.xhtml" target="_top" xlink:title="VectorNetworkProject\l\\Framework\\provider\\EliasDB">
<polygon fill="white" stroke="black" points="0,-0.5 0,-30.5 142,-30.5 142,-0.5 0,-0.5"/>
<text text-anchor="start" x="8" y="-18.5" font-family="Helvetica,sans-Serif" font-size="10.00">VectorNetworkProject</text>
<text text-anchor="middle" x="71" y="-7.5" font-family="Helvetica,sans-Serif" font-size="10.00">\Framework\provider\EliasDB</text>
</a>
</g>
</g>
<!-- Node0&#45;&gt;Node1 -->
<g id="edge1" class="edge"><title>Node0&#45;&gt;Node1</title>
<path fill="none" stroke="midnightblue" d="M71,-57.08C71,-48.0061 71,-38.4498 71,-30.8916"/>
<polygon fill="midnightblue" stroke="midnightblue" points="67.5001,-57.3618 71,-67.3618 74.5001,-57.3619 67.5001,-57.3618"/>
</g>
</g>
</svg>
