<?xml version="1.0" encoding="UTF-8" standalone="no"?>
<!DOCTYPE svg PUBLIC "-//W3C//DTD SVG 1.1//EN"
 "http://www.w3.org/Graphics/SVG/1.1/DTD/svg11.dtd">
<!-- Generated by graphviz version 2.38.0 (20140413.2041)
 -->
<!-- Title: クラス階層図 Pages: 1 -->
<svg width="293pt" height="88pt"
 viewBox="0.00 0.00 293.00 88.00" xmlns="http://www.w3.org/2000/svg" xmlns:xlink="http://www.w3.org/1999/xlink">
<g id="graph0" class="graph" transform="scale(1 1) rotate(0) translate(4 84)">
<title>クラス階層図</title>
<polygon fill="white" stroke="none" points="-4,4 -4,-84 289,-84 289,4 -4,4"/>
<!-- Node10 -->
<g id="node1" class="node"><title>Node10</title>
<polygon fill="white" stroke="#bfbfbf" points="0,-30 0,-49 61,-49 61,-30 0,-30"/>
<text text-anchor="middle" x="30.5" y="-37" font-family="Helvetica,sans-Serif" font-size="10.00">Command</text>
</g>
<!-- Node0 -->
<g id="node2" class="node"><title>Node0</title>
<g id="a_node2"><a xlink:href="d7/dc6/class_vector_network_project_1_1_framework_1_1command_1_1_elias_command.xhtml" target="_top" xlink:title="VectorNetworkProject\l\\Framework\\command\\EliasCommand">
<polygon fill="white" stroke="black" points="100,-49.5 100,-79.5 282,-79.5 282,-49.5 100,-49.5"/>
<text text-anchor="start" x="108" y="-67.5" font-family="Helvetica,sans-Serif" font-size="10.00">VectorNetworkProject</text>
<text text-anchor="middle" x="191" y="-56.5" font-family="Helvetica,sans-Serif" font-size="10.00">\Framework\command\EliasCommand</text>
</a>
</g>
</g>
<!-- Node10&#45;&gt;Node0 -->
<g id="edge1" class="edge"><title>Node10&#45;&gt;Node0</title>
<path fill="none" stroke="midnightblue" d="M71.2532,-45.7702C80.0992,-47.1655 89.8273,-48.6999 99.791,-50.2714"/>
<polygon fill="midnightblue" stroke="midnightblue" points="71.7359,-42.3032 61.3126,-44.2023 70.6452,-49.2177 71.7359,-42.3032"/>
</g>
<!-- Node12 -->
<g id="node3" class="node"><title>Node12</title>
<g id="a_node3"><a xlink:href="d6/d2d/class_vector_network_project_1_1_framework_1_1command_1_1_player_command.xhtml" target="_top" xlink:title="VectorNetworkProject\l\\Framework\\command\\PlayerCommand">
<polygon fill="white" stroke="black" points="97,-0.5 97,-30.5 285,-30.5 285,-0.5 97,-0.5"/>
<text text-anchor="start" x="105" y="-18.5" font-family="Helvetica,sans-Serif" font-size="10.00">VectorNetworkProject</text>
<text text-anchor="middle" x="191" y="-7.5" font-family="Helvetica,sans-Serif" font-size="10.00">\Framework\command\PlayerCommand</text>
</a>
</g>
</g>
<!-- Node10&#45;&gt;Node12 -->
<g id="edge2" class="edge"><title>Node10&#45;&gt;Node12</title>
<path fill="none" stroke="midnightblue" d="M71.3086,-33.4722C79.2533,-32.2692 87.9078,-30.9588 96.8044,-29.6116"/>
<polygon fill="midnightblue" stroke="midnightblue" points="70.6759,-30.028 61.3126,-34.9858 71.724,-36.9491 70.6759,-30.028"/>
</g>
</g>
</svg>
