<?xml version="1.0" encoding="UTF-8" standalone="no"?>
<!DOCTYPE svg PUBLIC "-//W3C//DTD SVG 1.1//EN"
 "http://www.w3.org/Graphics/SVG/1.1/DTD/svg11.dtd">
<!-- Generated by graphviz version 2.38.0 (20140413.2041)
 -->
<!-- Title: クラス階層図 Pages: 1 -->
<svg width="293pt" height="100pt"
 viewBox="0.00 0.00 293.00 99.50" xmlns="http://www.w3.org/2000/svg" xmlns:xlink="http://www.w3.org/1999/xlink">
<g id="graph0" class="graph" transform="scale(1 1) rotate(0) translate(4 95.5)">
<title>クラス階層図</title>
<polygon fill="white" stroke="none" points="-4,4 -4,-95.5 289,-95.5 289,4 -4,4"/>
<!-- Node5 -->
<g id="node1" class="node"><title>Node5</title>
<polygon fill="white" stroke="#bfbfbf" points="0,-33 0,-52 61,-52 61,-33 0,-33"/>
<text text-anchor="middle" x="30.5" y="-40" font-family="Helvetica,sans-Serif" font-size="10.00">Command</text>
</g>
<!-- Node0 -->
<g id="node2" class="node"><title>Node0</title>
<g id="a_node2"><a xlink:href="dc/ddd/class_vector_network_project_1_1_framework_1_1command_1_1_framework_command.xhtml" target="_top" xlink:title="VectorNetworkProject\l\\Framework\\command\\Framework\lCommand">
<polygon fill="white" stroke="black" points="109,-50 109,-91 273,-91 273,-50 109,-50"/>
<text text-anchor="start" x="117" y="-79" font-family="Helvetica,sans-Serif" font-size="10.00">VectorNetworkProject</text>
<text text-anchor="start" x="117" y="-68" font-family="Helvetica,sans-Serif" font-size="10.00">\Framework\command\Framework</text>
<text text-anchor="middle" x="191" y="-57" font-family="Helvetica,sans-Serif" font-size="10.00">Command</text>
</a>
</g>
</g>
<!-- Node5&#45;&gt;Node0 -->
<g id="edge1" class="edge"><title>Node5&#45;&gt;Node0</title>
<path fill="none" stroke="midnightblue" d="M71.3917,-49.5471C82.8619,-51.5734 95.8063,-53.8601 108.82,-56.1591"/>
<polygon fill="midnightblue" stroke="midnightblue" points="71.7691,-46.0597 61.3126,-47.7666 70.5513,-52.9529 71.7691,-46.0597"/>
</g>
<!-- Node7 -->
<g id="node3" class="node"><title>Node7</title>
<g id="a_node3"><a xlink:href="d6/d2d/class_vector_network_project_1_1_framework_1_1command_1_1_player_command.xhtml" target="_top" xlink:title="VectorNetworkProject\l\\Framework\\command\\PlayerCommand">
<polygon fill="white" stroke="black" points="97,-0.5 97,-30.5 285,-30.5 285,-0.5 97,-0.5"/>
<text text-anchor="start" x="105" y="-18.5" font-family="Helvetica,sans-Serif" font-size="10.00">VectorNetworkProject</text>
<text text-anchor="middle" x="191" y="-7.5" font-family="Helvetica,sans-Serif" font-size="10.00">\Framework\command\PlayerCommand</text>
</a>
</g>
</g>
<!-- Node5&#45;&gt;Node7 -->
<g id="edge2" class="edge"><title>Node5&#45;&gt;Node7</title>
<path fill="none" stroke="midnightblue" d="M71.4495,-35.6947C80.8346,-34.096 91.2044,-32.3295 101.79,-30.5263"/>
<polygon fill="midnightblue" stroke="midnightblue" points="70.5829,-32.2918 61.3126,-37.4215 71.7584,-39.1924 70.5829,-32.2918"/>
</g>
</g>
</svg>
