<?xml version="1.0" encoding="UTF-8" standalone="no"?>
<!DOCTYPE svg PUBLIC "-//W3C//DTD SVG 1.1//EN"
 "http://www.w3.org/Graphics/SVG/1.1/DTD/svg11.dtd">
<!-- Generated by graphviz version 2.38.0 (20140413.2041)
 -->
<!-- Title: VectorNetworkProject\Framework\util\Constants\setOption Pages: 1 -->
<svg width="330pt" height="50pt"
 viewBox="0.00 0.00 330.00 50.00" xmlns="http://www.w3.org/2000/svg" xmlns:xlink="http://www.w3.org/1999/xlink">
<g id="graph0" class="graph" transform="scale(1 1) rotate(0) translate(4 46)">
<title>VectorNetworkProject\Framework\util\Constants\setOption</title>
<polygon fill="white" stroke="none" points="-4,4 -4,-46 326,-46 326,4 -4,4"/>
<!-- Node3 -->
<g id="node1" class="node"><title>Node3</title>
<polygon fill="#bfbfbf" stroke="black" points="0,-0.5 0,-41.5 131,-41.5 131,-0.5 0,-0.5"/>
<text text-anchor="start" x="8" y="-29.5" font-family="Helvetica,sans-Serif" font-size="10.00">VectorNetworkProject</text>
<text text-anchor="start" x="8" y="-18.5" font-family="Helvetica,sans-Serif" font-size="10.00">\Framework\util\Constants</text>
<text text-anchor="middle" x="65.5" y="-7.5" font-family="Helvetica,sans-Serif" font-size="10.00">\setOption</text>
</g>
<!-- Node4 -->
<g id="node2" class="node"><title>Node4</title>
<g id="a_node2"><a xlink:href="../../d2/d73/class_vector_network_project_1_1_framework_1_1_framework_core.xhtml#af40cb69a433b64347459d6c7d96ebf08" target="_top" xlink:title="VectorNetworkProject\l\\Framework\\FrameworkCore\\init">
<polygon fill="white" stroke="black" points="167,-6 167,-36 322,-36 322,-6 167,-6"/>
<text text-anchor="start" x="175" y="-24" font-family="Helvetica,sans-Serif" font-size="10.00">VectorNetworkProject</text>
<text text-anchor="middle" x="244.5" y="-13" font-family="Helvetica,sans-Serif" font-size="10.00">\Framework\FrameworkCore\init</text>
</a>
</g>
</g>
<!-- Node3&#45;&gt;Node4 -->
<g id="edge1" class="edge"><title>Node3&#45;&gt;Node4</title>
<path fill="none" stroke="midnightblue" d="M141.298,-21C149.702,-21 158.274,-21 166.702,-21"/>
<polygon fill="midnightblue" stroke="midnightblue" points="141.152,-17.5001 131.152,-21 141.152,-24.5001 141.152,-17.5001"/>
</g>
</g>
</svg>
