<?xml version="1.0" encoding="UTF-8" standalone="no"?>
<!DOCTYPE svg PUBLIC "-//W3C//DTD SVG 1.1//EN"
 "http://www.w3.org/Graphics/SVG/1.1/DTD/svg11.dtd">
<!-- Generated by graphviz version 2.36.0 (20140111.2315)
 -->
<!-- Title: VectorNetworkProject\Framework\command\EliasCommand\execute Pages: 1 -->
<svg width="412pt" height="48pt"
 viewBox="0.00 0.00 412.00 48.00" xmlns="http://www.w3.org/2000/svg" xmlns:xlink="http://www.w3.org/1999/xlink">
<g id="graph0" class="graph" transform="scale(1 1) rotate(0) translate(4 44)">
<title>VectorNetworkProject\Framework\command\EliasCommand\execute</title>
<polygon fill="white" stroke="none" points="-4,4 -4,-44 408,-44 408,4 -4,4"/>
<!-- Node1 -->
<g id="node1" class="node"><title>Node1</title>
<polygon fill="#bfbfbf" stroke="black" points="0,0.5 0,-40.5 184,-40.5 184,0.5 0,0.5"/>
<text text-anchor="start" x="8" y="-28.5" font-family="Helvetica,sans-Serif" font-size="10.00">VectorNetworkProject</text>
<text text-anchor="start" x="8" y="-17.5" font-family="Helvetica,sans-Serif" font-size="10.00">\Framework\command\EliasCommand</text>
<text text-anchor="middle" x="92" y="-6.5" font-family="Helvetica,sans-Serif" font-size="10.00">\execute</text>
</g>
<!-- Node2 -->
<g id="node2" class="node"><title>Node2</title>
<g id="a_node2"><a xlink:href="../../d7/dc6/class_vector_network_project_1_1_framework_1_1command_1_1_elias_command.xhtml#ac1c4b0e8365ccfc20456cb3ec0f0e98c" target="_top" xlink:title="VectorNetworkProject\l\\Framework\\command\\EliasCommand\l\\onCommand">
<polygon fill="white" stroke="black" points="220,0.5 220,-40.5 404,-40.5 404,0.5 220,0.5"/>
<text text-anchor="start" x="228" y="-28.5" font-family="Helvetica,sans-Serif" font-size="10.00">VectorNetworkProject</text>
<text text-anchor="start" x="228" y="-17.5" font-family="Helvetica,sans-Serif" font-size="10.00">\Framework\command\EliasCommand</text>
<text text-anchor="middle" x="312" y="-6.5" font-family="Helvetica,sans-Serif" font-size="10.00">\onCommand</text>
</a>
</g>
</g>
<!-- Node1&#45;&gt;Node2 -->
<g id="edge1" class="edge"><title>Node1&#45;&gt;Node2</title>
<path fill="none" stroke="midnightblue" d="M184.188,-20C192.566,-20 201.088,-20 209.55,-20"/>
<polygon fill="midnightblue" stroke="midnightblue" points="209.826,-23.5001 219.826,-20 209.826,-16.5001 209.826,-23.5001"/>
</g>
</g>
</svg>
